<svg width="32" height="32" viewBox="0 0 32 32" fill="none" xmlns="http://www.w3.org/2000/svg">
<path d="M1.33252 12.215C1.33252 8.40611 1.33252 6.50167 2.06351 5.04687C2.7065 3.76719 3.73249 2.72678 4.99444 2.07475C6.42908 1.3335 8.30713 1.3335 12.0632 1.3335H19.9351C23.6912 1.3335 25.5693 1.3335 27.0039 2.07475C28.2659 2.72678 29.2919 3.76719 29.9349 5.04687C30.6659 6.50167 30.6659 8.40611 30.6659 12.215V19.7853C30.6659 23.5942 30.6659 25.4987 29.9349 26.9535C29.2919 28.2331 28.2659 29.2735 27.0039 29.9256C25.5693 30.6668 23.6912 30.6668 19.9351 30.6668H12.0632C8.30713 30.6668 6.42908 30.6668 4.99444 29.9256C3.73249 29.2735 2.7065 28.2331 2.06351 26.9535C1.33252 25.4987 1.33252 23.5942 1.33252 19.7853V12.215Z" fill="#3559FB"/>
<path fill-rule="evenodd" clip-rule="evenodd" d="M15.3904 5.77185C12.7444 6.03372 10.7193 6.94862 8.96551 8.67455C5.68221 11.9056 4.95626 16.9961 7.19941 21.0588C8.70727 23.7898 11.3376 25.6581 14.4073 26.1784C15.185 26.3103 16.7386 26.3255 17.4905 26.2087C20.0921 25.8044 22.3918 24.4532 23.9918 22.3889C25.9158 19.9065 26.5907 16.8126 25.8921 13.6771C25.0059 9.70018 21.6687 6.53527 17.6945 5.90265C17.033 5.79734 15.8252 5.72878 15.3904 5.77185ZM19.3534 13.1355V18.9335L18.8928 19.4007H13.1751L12.7145 18.9335V13.1355L13.1751 12.6684H18.8928L19.3534 13.1355Z" fill="white"/>
</svg>
