<svg width="25" height="24" viewBox="0 0 25 24" fill="none" xmlns="http://www.w3.org/2000/svg">
<path d="M12.5 21.9999C16.7526 21.9999 20.5 18.9999 20.5 14.9999C20.5 10.9999 17.5 8.99988 16.5 7.99988C15.0939 6.59378 14.6521 4.746 14.5254 3.47448C14.4552 2.77055 13.7759 2.27133 13.1864 2.66231C12.0335 3.4269 10.4037 4.98737 9.5 7.99988C8.85747 10.1417 9.5 11.9999 9.5 11.9999C9.5 11.9999 8.5 11.4999 8 9.99988C7.8353 9.50578 7.61635 8.90317 7.39675 8.31715C7.08071 7.47375 5.94066 7.48122 5.6629 8.33799C5.11497 10.0281 4.5 12.303 4.5 13.9999C4.5 18.9999 8.24745 21.9999 12.5 21.9999Z" fill="#8235E4"/>
</svg>
