<svg width="49" height="48" viewBox="0 0 49 48" fill="none" xmlns="http://www.w3.org/2000/svg">
<g clip-path="url(#clip0_2723_22101)">
<rect x="0.5" width="48" height="48" rx="24" fill="#8A5DE2"/>
<path d="M36.3664 43.7915C37.787 28.6305 17.8151 32.3391 16.8323 18.5232C15.3942 -1.69418 16.714 -1.56507 61.2278 -28.8548C116.87 -62.9669 133.444 83.589 104.439 86.7475C75.4344 89.906 34.5905 62.7426 36.3664 43.7915Z" fill="#B58EEF"/>
<path d="M-24.4505 77.7895C-23.5174 67.891 -36.6362 70.3123 -37.2817 61.292C-38.2264 48.0922 -37.3595 48.1765 -8.11996 30.3593C28.4294 8.0877 39.3165 103.773 20.2641 105.835C1.21181 107.897 -25.617 90.1626 -24.4505 77.7895Z" fill="#B58EEF"/>
</g>
<defs>
<clipPath id="clip0_2723_22101">
<rect x="0.5" width="48" height="48" rx="24" fill="white"/>
</clipPath>
</defs>
</svg>
