<svg width="96" height="96" viewBox="0 0 96 96" fill="none" xmlns="http://www.w3.org/2000/svg">
<rect width="96" height="96" rx="48" fill="#E45F35"/>
<path d="M31.3166 42.8182H33.9714L36.7754 49.6591H36.8947L39.6987 42.8182H42.3535V53H40.2654V46.3729H40.1809L37.546 52.9503H36.1241L33.4892 46.348H33.4047V53H31.3166V42.8182ZM47.5376 53.1491C46.7654 53.1491 46.0975 52.9851 45.5341 52.657C44.974 52.3255 44.5414 51.8648 44.2365 51.2749C43.9316 50.6816 43.7791 49.9938 43.7791 49.2116C43.7791 48.4228 43.9316 47.7334 44.2365 47.1435C44.5414 46.5502 44.974 46.0895 45.5341 45.7614C46.0975 45.4299 46.7654 45.2642 47.5376 45.2642C48.3099 45.2642 48.9761 45.4299 49.5362 45.7614C50.0997 46.0895 50.5339 46.5502 50.8388 47.1435C51.1437 47.7334 51.2962 48.4228 51.2962 49.2116C51.2962 49.9938 51.1437 50.6816 50.8388 51.2749C50.5339 51.8648 50.0997 52.3255 49.5362 52.657C48.9761 52.9851 48.3099 53.1491 47.5376 53.1491ZM47.5476 51.5085C47.8989 51.5085 48.1922 51.4091 48.4276 51.2102C48.6629 51.008 48.8402 50.733 48.9595 50.3849C49.0821 50.0369 49.1435 49.6409 49.1435 49.1967C49.1435 48.7526 49.0821 48.3565 48.9595 48.0085C48.8402 47.6605 48.6629 47.3854 48.4276 47.1832C48.1922 46.9811 47.8989 46.88 47.5476 46.88C47.1929 46.88 46.8946 46.9811 46.6527 47.1832C46.4141 47.3854 46.2334 47.6605 46.1108 48.0085C45.9915 48.3565 45.9318 48.7526 45.9318 49.1967C45.9318 49.6409 45.9915 50.0369 46.1108 50.3849C46.2334 50.733 46.4141 51.008 46.6527 51.2102C46.8946 51.4091 47.1929 51.5085 47.5476 51.5085ZM52.6733 53V45.3636H54.7266V46.696H54.8061C54.9453 46.2221 55.179 45.8641 55.5071 45.6222C55.8352 45.3769 56.2131 45.2543 56.6406 45.2543C56.7467 45.2543 56.861 45.2609 56.9837 45.2741C57.1063 45.2874 57.214 45.3056 57.3068 45.3288V47.2081C57.2074 47.1783 57.0698 47.1518 56.8942 47.1286C56.7185 47.1054 56.5578 47.0938 56.4119 47.0938C56.1004 47.0938 55.822 47.1617 55.5767 47.2976C55.3348 47.4302 55.1425 47.6158 55 47.8544C54.8608 48.093 54.7912 48.3681 54.7912 48.6797V53H52.6733ZM61.5265 53.1491C60.7409 53.1491 60.0648 52.9901 59.498 52.6719C58.9346 52.3504 58.5004 51.8963 58.1955 51.3097C57.8906 50.7197 57.7381 50.022 57.7381 49.2166C57.7381 48.4311 57.8906 47.7417 58.1955 47.1484C58.5004 46.5552 58.9296 46.0928 59.4831 45.7614C60.04 45.4299 60.6929 45.2642 61.4419 45.2642C61.9457 45.2642 62.4147 45.3454 62.8489 45.5078C63.2864 45.6669 63.6676 45.9072 63.9924 46.2287C64.3205 46.5502 64.5757 46.9545 64.758 47.4418C64.9403 47.9257 65.0314 48.4924 65.0314 49.142V49.7237H58.5833V48.4112H63.0378C63.0378 48.1063 62.9715 47.8362 62.839 47.6009C62.7064 47.3655 62.5224 47.1816 62.2871 47.049C62.0551 46.9131 61.785 46.8452 61.4767 46.8452C61.1552 46.8452 60.8702 46.9197 60.6216 47.0689C60.3764 47.2147 60.1841 47.4119 60.0449 47.6605C59.9057 47.9058 59.8345 48.1792 59.8311 48.4808V49.7287C59.8311 50.1065 59.9007 50.433 60.04 50.7081C60.1825 50.9832 60.383 51.1953 60.6415 51.3445C60.9 51.4936 61.2066 51.5682 61.5613 51.5682C61.7966 51.5682 62.012 51.535 62.2076 51.4688C62.4031 51.4025 62.5705 51.303 62.7097 51.1705C62.8489 51.0379 62.955 50.8755 63.0279 50.6832L64.9867 50.8125C64.8873 51.2831 64.6834 51.6941 64.3752 52.0455C64.0703 52.3935 63.6758 52.6652 63.1919 52.8608C62.7114 53.053 62.1562 53.1491 61.5265 53.1491Z" fill="white"/>
<g filter="url(#filter0_d_3049_563)">
<path d="M60.7135 75.5473C60.7135 75.6961 60.7879 75.1329 61.0216 74.7611C61.1118 74.4934 61.3046 74.2725 61.5577 74.1469C61.683 74.0848 61.8193 74.0479 61.9589 74.0384C62.0984 74.0289 62.2385 74.0471 62.371 74.0917C62.5036 74.1364 62.626 74.2067 62.7314 74.2986C62.8368 74.3906 62.923 74.5025 62.9852 74.6278C63.0473 74.7531 63.0842 74.8894 63.0937 75.0289C63.1031 75.1685 63.085 75.3085 63.0404 75.4411C63.0404 76.1423 63.0404 76.1104 63.0404 76.5779C63.0404 77.0454 63.0404 77.4492 63.0404 77.853C62.9996 78.4745 62.9143 79.0923 62.7854 79.7017C62.6145 80.2181 62.3789 80.7108 62.0841 81.1679C61.5676 81.7451 61.1413 82.3971 60.8198 83.1017C60.7362 83.4494 60.7004 83.8068 60.7135 84.1642C60.7139 84.4942 60.7568 84.8227 60.841 85.1417C60.4067 85.1895 59.9685 85.1895 59.5341 85.1417C59.1198 85.078 58.5991 84.2492 58.4716 83.9942C58.4393 83.9242 58.3876 83.8649 58.3227 83.8233C58.2577 83.7818 58.1822 83.7597 58.1051 83.7597C58.028 83.7597 57.9525 83.7818 57.8875 83.8233C57.8225 83.8649 57.7708 83.9242 57.7385 83.9942C57.5048 84.398 56.9948 85.1311 56.6229 85.1736C55.9216 85.2586 54.4448 85.1736 53.2973 85.1736C53.2973 85.1736 53.4885 84.1111 53.0529 83.7286C52.6173 83.3461 52.171 82.8998 51.831 82.6023L50.9491 81.6248C50.3285 81.0465 49.8736 80.3129 49.6316 79.4998C49.4085 78.5011 49.4298 78.0123 49.6316 77.6192C49.8548 77.2926 50.1922 77.0614 50.5773 76.9711C50.886 76.9167 51.2033 76.9386 51.5016 77.0348C51.7102 77.1221 51.8904 77.2656 52.0223 77.4492C52.2666 77.7786 52.341 77.9379 52.256 77.5767C52.171 77.2154 52.0435 76.6842 51.8204 75.9298C51.6398 75.3454 51.4591 75.0161 51.321 74.623C51.1829 74.2298 51.0023 73.858 50.7898 73.3692C50.5973 72.8701 50.4376 72.3591 50.3116 71.8392C50.2635 71.6251 50.2623 71.4031 50.3082 71.1885C50.3541 70.9739 50.4458 70.7718 50.5773 70.5961C50.764 70.4123 50.996 70.2812 51.2498 70.2159C51.5035 70.1506 51.77 70.1534 52.0223 70.2242C52.4232 70.3979 52.7608 70.691 52.9891 71.0636C53.3068 71.5774 53.5636 72.1266 53.7541 72.6998C54.1044 73.612 54.3538 74.5597 54.4979 75.5261C54.4719 74.9558 54.5184 74.3846 54.636 73.8261C54.695 73.6565 54.7916 73.5024 54.9185 73.3755C55.0455 73.2485 55.1996 73.1519 55.3691 73.0929C55.6848 72.9918 56.0205 72.9699 56.3466 73.0292C56.6718 73.1014 56.9591 73.2905 57.1541 73.5605C57.3981 74.1814 57.5381 74.8384 57.5685 75.5048C57.5995 74.9353 57.6994 74.3716 57.866 73.8261C58.0442 73.5765 58.3032 73.3964 58.5991 73.3161C58.9505 73.2525 59.3103 73.2525 59.6616 73.3161C59.9491 73.4136 60.2007 73.5949 60.3841 73.8367C60.6088 74.4003 60.745 74.9952 60.7879 75.6004" fill="white"/>
<path d="M60.7135 75.5473C60.7135 75.6961 60.7879 75.1329 61.0216 74.7611C61.1118 74.4934 61.3046 74.2725 61.5577 74.1469C61.683 74.0848 61.8193 74.0479 61.9589 74.0384C62.0984 74.0289 62.2385 74.0471 62.371 74.0917C62.5036 74.1364 62.626 74.2067 62.7314 74.2986C62.8368 74.3906 62.923 74.5025 62.9852 74.6278C63.0473 74.7531 63.0842 74.8894 63.0937 75.0289C63.1031 75.1685 63.085 75.3085 63.0404 75.4411C63.0404 76.1423 63.0404 76.1104 63.0404 76.5779C63.0404 77.0454 63.0404 77.4492 63.0404 77.853C62.9996 78.4745 62.9143 79.0923 62.7854 79.7017C62.6145 80.2181 62.3789 80.7108 62.0841 81.1679C61.5676 81.7451 61.1413 82.3971 60.8198 83.1017C60.7362 83.4494 60.7004 83.8068 60.7135 84.1642C60.7139 84.4942 60.7568 84.8227 60.841 85.1417C60.4067 85.1895 59.9685 85.1895 59.5341 85.1417C59.1198 85.078 58.5991 84.2492 58.4716 83.9942C58.4393 83.9242 58.3876 83.8649 58.3227 83.8233C58.2577 83.7818 58.1822 83.7597 58.1051 83.7597C58.028 83.7597 57.9525 83.7818 57.8875 83.8233C57.8225 83.8649 57.7708 83.9242 57.7385 83.9942C57.5048 84.398 56.9948 85.1311 56.6229 85.1736C55.9216 85.2586 54.4448 85.1736 53.2973 85.1736C53.2973 85.1736 53.4885 84.1111 53.0529 83.7286C52.6173 83.3461 52.171 82.8998 51.831 82.6023L50.9491 81.6248C50.3285 81.0465 49.8736 80.3129 49.6316 79.4998C49.4085 78.5011 49.4298 78.0123 49.6316 77.6192C49.8548 77.2926 50.1922 77.0614 50.5773 76.9711C50.886 76.9167 51.2033 76.9386 51.5016 77.0348C51.7102 77.1221 51.8904 77.2656 52.0223 77.4492C52.2666 77.7786 52.341 77.9379 52.256 77.5767C52.171 77.2154 52.0435 76.6842 51.8204 75.9298C51.6398 75.3454 51.4591 75.0161 51.321 74.623C51.1829 74.2298 51.0023 73.858 50.7898 73.3692C50.5973 72.8701 50.4376 72.3591 50.3116 71.8392C50.2635 71.6251 50.2623 71.4031 50.3082 71.1885C50.3541 70.9739 50.4458 70.7718 50.5773 70.5961C50.764 70.4123 50.996 70.2812 51.2498 70.2159C51.5035 70.1506 51.77 70.1534 52.0223 70.2242C52.4232 70.3979 52.7608 70.691 52.9891 71.0636C53.3068 71.5774 53.5636 72.1266 53.7541 72.6998C54.1044 73.612 54.3538 74.5597 54.4979 75.5261C54.4719 74.9558 54.5184 74.3846 54.636 73.8261C54.695 73.6565 54.7916 73.5024 54.9185 73.3755C55.0455 73.2485 55.1996 73.1519 55.3691 73.0929C55.6848 72.9918 56.0205 72.9699 56.3466 73.0292C56.6718 73.1014 56.9591 73.2905 57.1541 73.5605C57.3981 74.1814 57.5381 74.8384 57.5685 75.5048C57.5995 74.9353 57.6994 74.3716 57.866 73.8261C58.0442 73.5765 58.3032 73.3964 58.5991 73.3161C58.9505 73.2525 59.3103 73.2525 59.6616 73.3161C59.9491 73.4136 60.2007 73.5949 60.3841 73.8367C60.5782 74.3874 60.6892 74.9639 60.7135 75.5473V75.5473Z" stroke="black" stroke-width="0.75" stroke-linejoin="round"/>
<path d="M59.6831 82.0073V78.3311" stroke="black" stroke-width="0.75" stroke-linecap="round"/>
<path d="M57.5365 82.018L57.5259 78.3311" stroke="black" stroke-width="0.75" stroke-linecap="round"/>
<path d="M55.4224 78.3629L55.4436 81.9967" stroke="black" stroke-width="0.75" stroke-linecap="round"/>
</g>
<defs>
<filter id="filter0_d_3049_563" x="47.0972" y="69.7939" width="18.374" height="19.7925" filterUnits="userSpaceOnUse" color-interpolation-filters="sRGB">
<feFlood flood-opacity="0" result="BackgroundImageFix"/>
<feColorMatrix in="SourceAlpha" type="matrix" values="0 0 0 0 0 0 0 0 0 0 0 0 0 0 0 0 0 0 127 0" result="hardAlpha"/>
<feOffset dy="2"/>
<feGaussianBlur stdDeviation="1"/>
<feColorMatrix type="matrix" values="0 0 0 0 0 0 0 0 0 0 0 0 0 0 0 0 0 0 0.25 0"/>
<feBlend mode="normal" in2="BackgroundImageFix" result="effect1_dropShadow_3049_563"/>
<feBlend mode="normal" in="SourceGraphic" in2="effect1_dropShadow_3049_563" result="shape"/>
</filter>
</defs>
</svg>
