<svg width="19" height="20" viewBox="0 0 19 20" fill="none" xmlns="http://www.w3.org/2000/svg">
<path d="M7.6904 8.38994C7.41176 8.41286 7.15194 8.53974 6.96253 8.74538C6.77312 8.95101 6.66797 9.22036 6.66797 9.49994C6.66797 9.77952 6.77312 10.0489 6.96253 10.2545C7.15194 10.4601 7.41176 10.587 7.6904 10.6099C7.8303 10.6042 7.96768 10.5708 8.09469 10.5119C8.2217 10.453 8.33584 10.3696 8.43058 10.2665C8.52532 10.1634 8.5988 10.0426 8.64681 9.91106C8.69483 9.77953 8.71644 9.63983 8.7104 9.49994C8.71728 9.35986 8.69625 9.2198 8.64855 9.08791C8.60084 8.95602 8.52741 8.83492 8.43251 8.73165C8.33761 8.62838 8.22314 8.54499 8.09574 8.48633C7.96835 8.42767 7.83057 8.3949 7.6904 8.38994ZM11.3404 8.38994C11.1169 8.37106 10.893 8.42009 10.6978 8.53061C10.5027 8.64112 10.3454 8.80798 10.2467 9.00934C10.1479 9.21069 10.1123 9.43717 10.1444 9.65913C10.1765 9.88109 10.2748 10.0882 10.4266 10.2533C10.5783 10.4185 10.7764 10.5339 10.9948 10.5846C11.2133 10.6354 11.442 10.6189 11.6509 10.5375C11.8599 10.4561 12.0394 10.3135 12.166 10.1284C12.2926 9.94324 12.3604 9.72421 12.3604 9.49994C12.3664 9.36005 12.3448 9.22035 12.2968 9.08882C12.2488 8.95729 12.1753 8.83652 12.0806 8.73342C11.9858 8.63033 11.8717 8.54692 11.7447 8.48798C11.6177 8.42904 11.4803 8.39573 11.3404 8.38994Z" fill="white"/>
<path d="M16.2 0H2.80001C2.53014 0.000655811 2.26304 0.0544596 2.01397 0.158339C1.7649 0.262219 1.53872 0.41414 1.34836 0.605429C1.158 0.796718 1.00719 1.02363 0.904519 1.2732C0.801852 1.52278 0.749349 1.79013 0.750006 2.06V15.58C0.749349 15.8499 0.801852 16.1172 0.904519 16.3668C1.00719 16.6164 1.158 16.8433 1.34836 17.0346C1.53872 17.2259 1.7649 17.3778 2.01397 17.4817C2.26304 17.5855 2.53014 17.6393 2.80001 17.64H14.14L13.61 15.79L14.89 16.98L16.1 18.105L18.25 20V2.06C18.2507 1.79013 18.1982 1.52278 18.0955 1.2732C17.9928 1.02363 17.842 0.796718 17.6516 0.605429C17.4613 0.41414 17.2351 0.262219 16.986 0.158339C16.737 0.0544596 16.4699 0.000655811 16.2 0V0ZM12.34 13.06C12.34 13.06 11.98 12.625 11.68 12.25C12.4049 12.0794 13.046 11.6578 13.49 11.06C13.1302 11.2995 12.7444 11.4974 12.34 11.65C11.8748 11.8486 11.3883 11.9929 10.89 12.08C10.0336 12.2378 9.1552 12.2344 8.30001 12.07C7.79793 11.9718 7.30588 11.8278 6.83001 11.64C6.42953 11.4857 6.04723 11.2879 5.69001 11.05C6.11795 11.6353 6.73696 12.0527 7.44001 12.23C7.14001 12.605 6.77001 13.06 6.77001 13.06C6.17598 13.076 5.58711 12.9458 5.05526 12.6807C4.5234 12.4157 4.06486 12.0239 3.72001 11.54C3.75246 9.51271 4.24484 7.51926 5.16001 5.71C5.96536 5.07749 6.94721 4.7106 7.97001 4.66L8.07001 4.785C7.10955 5.02394 6.21338 5.47117 5.44501 6.095C5.44501 6.095 5.66501 5.97 6.03501 5.805C6.75411 5.47861 7.52019 5.26769 8.30501 5.18C8.36099 5.16841 8.41787 5.16172 8.47501 5.16C9.14288 5.0681 9.81934 5.05635 10.49 5.125C11.5463 5.24563 12.5689 5.57176 13.5 6.085C12.7688 5.49196 11.9201 5.0608 11.01 4.82L11.15 4.66C12.1728 4.7106 13.1547 5.07749 13.96 5.71C14.8752 7.51926 15.3676 9.51271 15.4 11.54C15.0524 12.0235 14.5919 12.4147 14.0586 12.6796C13.5252 12.9445 12.9353 13.0751 12.34 13.06Z" fill="white"/>
</svg>
