<svg width="40" height="40" viewBox="0 0 40 40" fill="none" xmlns="http://www.w3.org/2000/svg">
<rect x="1" y="1" width="38" height="38" rx="19" stroke="#7F8596" stroke-opacity="0.3" stroke-width="2"/>
<path d="M29 22.4118C29 28 27 29 20 29C13 29 11 28 11 22C11 16 13 15 20 15C27 15 29 16 29 22.4118Z" stroke="#22252D" stroke-width="2" stroke-linecap="round" stroke-linejoin="round"/>
<path d="M19.5 15C19.5 13 19.5 12.2222 21.5 12.2222C23.5 12.2222 23.5 11.5 23.5 10" stroke="#22252D" stroke-width="2" stroke-linecap="round" stroke-linejoin="round"/>
<path d="M22 20.5C22.2761 20.5 22.5 20.2761 22.5 20C22.5 19.7239 22.2761 19.5 22 19.5C21.7239 19.5 21.5 19.7239 21.5 20C21.5 20.2761 21.7239 20.5 22 20.5Z" fill="#22252D" stroke="#22252D" stroke-width="2" stroke-linecap="round" stroke-linejoin="round"/>
<path d="M25 24.5C25.2761 24.5 25.5 24.2761 25.5 24C25.5 23.7239 25.2761 23.5 25 23.5C24.7239 23.5 24.5 23.7239 24.5 24C24.5 24.2761 24.7239 24.5 25 24.5Z" fill="#22252D" stroke="#22252D" stroke-width="2" stroke-linecap="round" stroke-linejoin="round"/>
<path d="M15 22H19" stroke="#22252D" stroke-width="2" stroke-linecap="round" stroke-linejoin="round"/>
<path d="M17 24L17 20" stroke="#22252D" stroke-width="2" stroke-linecap="round" stroke-linejoin="round"/>
</svg>
