<svg width="16" height="16" viewBox="0 0 16 16" fill="none" xmlns="http://www.w3.org/2000/svg">
<g clip-path="url(#clip0_2939_3205)">
<path d="M6.70516 6.85094C6.50614 6.86732 6.32055 6.95794 6.18525 7.10482C6.04996 7.25171 5.97485 7.4441 5.97485 7.6438C5.97485 7.8435 6.04996 8.03589 6.18525 8.18277C6.32055 8.32966 6.50614 8.42028 6.70516 8.43666C6.80532 8.43299 6.90376 8.40951 6.99479 8.3676C7.08583 8.32568 7.16766 8.26614 7.23557 8.19243C7.30347 8.11871 7.3561 8.03228 7.39042 7.93811C7.42474 7.84395 7.44007 7.74392 7.43552 7.6438C7.44043 7.54359 7.42535 7.44341 7.39117 7.34909C7.35698 7.25477 7.30437 7.16819 7.2364 7.0944C7.16843 7.02061 7.08645 6.96109 6.99525 6.91929C6.90404 6.87749 6.80543 6.85426 6.70516 6.85094ZM9.31231 6.85094C9.15272 6.83782 8.99289 6.87317 8.85372 6.95235C8.71455 7.03153 8.60251 7.15087 8.53225 7.29476C8.462 7.43864 8.4368 7.60038 8.45995 7.75882C8.4831 7.91726 8.55352 8.06503 8.66201 8.1828C8.77049 8.30057 8.91199 8.38286 9.06801 8.41891C9.22402 8.45496 9.38727 8.4431 9.53643 8.38487C9.68559 8.32664 9.81371 8.22475 9.90403 8.09253C9.99435 7.96032 10.0427 7.80392 10.0427 7.6438C10.0472 7.54382 10.0319 7.44393 9.99774 7.34988C9.96353 7.25583 9.91105 7.16947 9.84334 7.09578C9.77562 7.02209 9.694 6.96252 9.60317 6.9205C9.51234 6.87848 9.41409 6.85484 9.31409 6.85094H9.31231Z" fill="#22252D"/>
<path d="M12.7855 0.858093H3.21405C3.02114 0.858561 2.83021 0.897052 2.65218 0.971363C2.47416 1.04567 2.31253 1.15435 2.17653 1.29117C2.04054 1.428 1.93285 1.59029 1.85962 1.76876C1.78639 1.94724 1.74906 2.1384 1.74977 2.33131V11.9867C1.74906 12.1796 1.78639 12.3707 1.85962 12.5492C1.93285 12.7277 2.04054 12.89 2.17653 13.0268C2.31253 13.1636 2.47416 13.2723 2.65218 13.3466C2.83021 13.4209 3.02114 13.4594 3.21405 13.4599H11.3141L10.9355 12.1384L11.8498 12.9867L12.7141 13.7867L14.2498 15.1438V2.33131C14.2505 2.1384 14.2131 1.94724 14.1399 1.76876C14.0667 1.59029 13.959 1.428 13.823 1.29117C13.687 1.15435 13.5254 1.04567 13.3473 0.971363C13.1693 0.897052 12.9784 0.858561 12.7855 0.858093V0.858093ZM10.0283 10.1884C10.0283 10.1884 9.7712 9.88131 9.55691 9.60809C10.075 9.48703 10.5336 9.18656 10.8516 8.75988C10.5945 8.93092 10.319 9.0723 10.0301 9.1813C9.69783 9.32314 9.3503 9.4262 8.99441 9.48845C8.38266 9.60108 7.75527 9.59866 7.14441 9.48131C6.78578 9.41113 6.43432 9.30833 6.09441 9.17416C5.80738 9.06287 5.53318 8.92098 5.27655 8.75095C5.58223 9.16902 6.02437 9.46716 6.52655 9.59381C6.31227 9.86523 6.04798 10.1867 6.04798 10.1867C5.62367 10.1981 5.20306 10.1051 4.82316 9.91577C4.44326 9.72644 4.11573 9.44662 3.86941 9.10095C3.89204 7.65303 4.24312 6.22914 4.89619 4.93666C5.47194 4.48452 6.17394 4.22244 6.90512 4.18666L6.97655 4.27238C6.28922 4.44248 5.64782 4.76196 5.09798 5.20809C5.09798 5.20809 5.25512 5.12238 5.51941 5.00095C6.0334 4.7664 6.58123 4.61453 7.14262 4.55095C7.18261 4.54267 7.22324 4.53789 7.26405 4.53666C7.74271 4.4743 8.22711 4.4695 8.70691 4.52238C9.46144 4.60856 10.1918 4.8415 10.8569 5.20809C10.335 4.78321 9.72873 4.47401 9.07834 4.30095L9.17834 4.18666C9.90952 4.22244 10.6115 4.48452 11.1873 4.93666C11.8403 6.22914 12.1914 7.65303 12.2141 9.10095C11.9659 9.44658 11.6371 9.72633 11.2561 9.91587C10.8752 10.1054 10.4537 10.199 10.0283 10.1884Z" fill="#22252D"/>
</g>
<defs>
<clipPath id="clip0_2939_3205">
<rect width="14.2857" height="14.2857" fill="white" transform="translate(0.856934 0.858093)"/>
</clipPath>
</defs>
</svg>
