<svg width="16" height="16" viewBox="0 0 16 16" fill="none" xmlns="http://www.w3.org/2000/svg">
<path d="M7.99994 10.2628C9.24916 10.2628 10.2618 9.25013 10.2618 8.00092C10.2618 6.7517 9.24916 5.73901 7.99994 5.73901C6.75073 5.73901 5.73804 6.7517 5.73804 8.00092C5.73804 9.25013 6.75073 10.2628 7.99994 10.2628Z" fill="#22252D"/>
<path d="M10.8266 1.21521H5.17188C2.98971 1.21521 1.21411 2.99137 1.21411 5.17411V10.8289C1.21411 13.011 2.99027 14.7866 5.17301 14.7866H10.8278C13.0099 14.7866 14.7855 13.0105 14.7855 10.8277V5.17298C14.7855 2.9908 13.0094 1.21521 10.8266 1.21521ZM7.99983 11.3938C6.12867 11.3938 4.60697 9.87208 4.60697 8.00092C4.60697 6.12976 6.12867 4.60807 7.99983 4.60807C9.87099 4.60807 11.3927 6.12976 11.3927 8.00092C11.3927 9.87208 9.87099 11.3938 7.99983 11.3938ZM11.9582 4.60807C11.646 4.60807 11.3927 4.35473 11.3927 4.04259C11.3927 3.73045 11.646 3.47711 11.9582 3.47711C12.2703 3.47711 12.5236 3.73045 12.5236 4.04259C12.5236 4.35473 12.2703 4.60807 11.9582 4.60807Z" fill="#22252D"/>
</svg>
