<svg width="16" height="16" viewBox="0 0 16 16" fill="none" xmlns="http://www.w3.org/2000/svg">
<g clip-path="url(#clip0_2939_3225)">
<path d="M15.1136 2.36213C15.1021 2.30941 15.0768 2.26068 15.0404 2.22091C15.0039 2.18115 14.9575 2.15178 14.906 2.13579C14.7184 2.09879 14.5243 2.11267 14.3439 2.17597C14.3439 2.17597 1.82741 6.67463 1.11268 7.17284C0.958212 7.27998 0.906873 7.34204 0.881426 7.4157C0.757766 7.77016 1.14259 7.92641 1.14259 7.92641L4.36848 8.97775C4.42297 8.98717 4.4789 8.98381 4.53187 8.96793C5.2658 8.50454 11.9154 4.30543 12.2997 4.16436C12.36 4.14606 12.4046 4.16436 12.3948 4.209C12.2377 4.7474 6.49527 9.85052 6.46357 9.88177C6.44816 9.89441 6.43605 9.9106 6.42828 9.92895C6.4205 9.9473 6.41729 9.96726 6.41893 9.98713L6.11893 13.1349C6.11893 13.1349 5.99303 14.117 6.97339 13.1349C7.66848 12.4389 8.33544 11.863 8.66982 11.5831C9.77919 12.3487 10.9729 13.1956 11.4877 13.6367C11.574 13.7206 11.6764 13.7862 11.7887 13.8296C11.901 13.873 12.0209 13.8933 12.1412 13.8894C12.6323 13.8706 12.7662 13.3336 12.7662 13.3336C12.7662 13.3336 15.0466 4.15722 15.1234 2.92731C15.1305 2.80677 15.1408 2.72954 15.1417 2.64695C15.1458 2.55116 15.1363 2.45527 15.1136 2.36213Z" fill="#22252D"/>
</g>
<defs>
<clipPath id="clip0_2939_3225">
<rect width="14.2857" height="14.2857" fill="white" transform="translate(0.856934 0.858093)"/>
</clipPath>
</defs>
</svg>
